<?xml version="1.0" standalone="no"?>
<!DOCTYPE svg PUBLIC "-//W3C//DTD SVG 20010904//EN"
 "http://www.w3.org/TR/2001/REC-SVG-20010904/DTD/svg10.dtd">
<svg version="1.0" xmlns="http://www.w3.org/2000/svg"
 width="814.000000pt" height="520.000000pt" viewBox="0 0 814.000000 520.000000"
 preserveAspectRatio="xMidYMid meet">
<metadata>
Created by potrace 1.16, written by Peter Selinger 2001-2019
</metadata>
<g transform="translate(0.000000,520.000000) scale(0.100000,-0.100000)"
fill="#ffffff" stroke="none">
<path d="M3135 5181 c-45 -27 -195 -190 -211 -227 -10 -24 -14 -80 -14 -189
l0 -155 170 0 c128 0 178 4 198 14 15 8 70 59 123 113 114 117 114 117 104
323 l-8 140 -166 0 c-144 0 -170 -3 -196 -19z"/>
<path d="M4487 5143 c-3 -5 -37 -87 -77 -183 -40 -96 -87 -210 -106 -253 -19
-43 -34 -82 -34 -87 0 -6 22 -10 49 -10 l49 0 28 65 27 66 90 -3 91 -3 25 -63
26 -62 110 2 109 3 24 63 24 62 89 0 90 0 29 -65 29 -65 51 0 c27 0 50 2 50 6
0 3 -50 124 -112 270 -140 331 -132 327 -220 114 -119 -289 -135 -325 -150
-355 l-16 -29 -31 68 c-17 38 -31 71 -31 73 0 3 -13 35 -29 71 -15 37 -45 108
-66 157 -58 139 -73 165 -95 165 -10 0 -21 -3 -23 -7z"/>
<path d="M3650 5095 l0 -45 80 0 80 0 0 -220 0 -220 55 0 55 0 0 220 0 220 80
0 80 0 0 45 0 45 -215 0 -215 0 0 -45z"/>
<path d="M4130 4875 l0 -265 50 0 50 0 0 265 0 265 -50 0 -50 0 0 -265z"/>
<path d="M3653 4323 c-10 -3 -13 -56 -13 -214 l0 -209 95 0 95 0 0 -400 0
-400 -95 0 -95 0 0 -212 0 -213 448 2 c246 1 455 2 465 2 16 1 17 18 17 211
l0 210 -100 0 -100 0 0 609 c0 546 -2 609 -16 615 -19 7 -683 7 -701 -1z"/>
<path d="M4975 4320 c-81 -11 -118 -24 -175 -60 -67 -43 -117 -101 -154 -179
l-31 -66 0 -515 0 -515 27 -58 c53 -112 130 -185 243 -227 59 -22 66 -22 542
-21 517 2 529 3 616 54 52 31 128 111 155 163 48 94 52 130 52 451 l0 303
-339 0 -338 0 -7 -31 c-8 -40 -8 -232 0 -253 5 -12 21 -16 70 -16 44 0 64 -4
65 -12 0 -7 1 -57 1 -111 0 -84 -3 -101 -19 -112 -14 -11 -69 -14 -260 -15
-239 0 -242 0 -257 22 -14 19 -16 72 -16 378 0 306 2 359 16 378 15 22 18 22
264 22 188 0 251 -3 257 -12 4 -7 10 -38 13 -68 l5 -55 273 -3 272 -2 0 89 c0
164 -29 248 -122 346 -64 69 -140 110 -231 125 -65 11 -840 10 -922 0z"/>
<path d="M835 4274 c-16 -2 -68 -9 -113 -15 l-84 -11 7 -57 6 -57 -98 -23
c-138 -33 -271 -80 -390 -136 -96 -45 -102 -49 -97 -74 2 -14 11 -69 19 -121
32 -216 106 -697 111 -727 4 -18 10 -33 14 -33 4 0 49 20 101 44 113 53 267
105 402 136 l97 23 -6 36 c-3 20 -8 43 -10 52 -3 9 2 19 10 22 44 17 240 29
413 25 106 -2 193 -1 193 3 0 7 -11 81 -80 529 -23 146 -44 286 -47 312 -3 27
-12 53 -19 59 -14 11 -367 22 -429 13z"/>
<path d="M6955 4271 c-52 -5 -61 -9 -67 -31 -5 -14 -35 -205 -68 -425 -33
-220 -63 -414 -66 -430 l-5 -30 233 0 c224 0 350 -8 376 -23 8 -6 9 -23 3 -59
l-8 -51 96 -22 c134 -31 288 -83 404 -137 53 -26 100 -44 102 -41 7 7 25 112
85 513 28 187 53 352 56 368 5 26 2 29 -73 63 -120 56 -277 111 -401 141
l-112 28 6 56 6 56 -78 13 c-90 14 -399 21 -489 11z"/>
<path d="M1362 3289 c-17 -12 -35 -33 -39 -47 -3 -14 1 -76 11 -137 9 -60 26
-171 37 -245 30 -200 20 -180 87 -180 l58 0 -48 308 c-26 169 -48 310 -48 315
0 13 -24 7 -58 -14z"/>
<path d="M6740 3300 c0 -5 -20 -140 -45 -300 -25 -160 -45 -298 -45 -305 0
-11 14 -15 55 -15 65 0 53 -36 104 300 42 279 43 273 -16 311 -31 21 -53 24
-53 9z"/>
<path d="M6256 2804 c-40 -40 -26 -115 25 -133 79 -27 140 57 88 123 -16 20
-29 26 -59 26 -22 0 -45 -7 -54 -16z"/>
<path d="M7 1783 c-10 -9 -9 -673 1 -674 4 0 115 -2 247 -4 417 -7 889 -51
1265 -116 63 -11 138 -24 165 -29 261 -44 692 -163 990 -274 l70 -26 123 123
124 124 -30 55 c-114 210 -163 473 -139 741 l8 87 -1409 0 c-775 0 -1412 -3
-1415 -7z"/>
<path d="M3051 1755 c-56 -96 -75 -234 -47 -345 51 -201 279 -379 607 -473
126 -37 254 -51 459 -51 286 0 478 38 675 134 232 112 368 269 397 458 13 83
-7 200 -47 268 l-26 44 -998 0 -999 0 -21 -35z"/>
<path d="M5310 1767 c0 -12 5 -61 11 -107 7 -60 7 -119 0 -202 -17 -185 -53
-313 -133 -472 l-40 -79 124 -124 c84 -84 128 -121 138 -117 8 3 91 33 183 65
652 229 1495 365 2294 372 233 2 242 3 247 22 8 28 7 615 0 643 l-6 22 -1409
0 -1409 0 0 -23z"/>
<path d="M3057 1133 c122 -295 350 -517 641 -623 232 -85 526 -83 753 5 214
83 389 221 516 410 42 62 105 181 118 225 7 22 3 21 -36 -15 -192 -177 -451
-286 -773 -326 -135 -16 -420 -6 -548 20 -253 51 -451 142 -615 280 l-72 61
16 -37z"/>
<path d="M3064 568 c-55 -53 -84 -89 -84 -103 0 -25 93 -118 128 -129 24 -8
72 15 90 44 9 14 6 22 -14 41 -22 20 -26 21 -49 9 -23 -12 -28 -12 -48 8 l-21
22 49 50 c27 27 57 50 66 50 26 0 40 -24 33 -58 -5 -25 -2 -33 21 -48 27 -18
28 -18 56 14 16 18 29 41 29 51 0 28 -115 131 -147 131 -18 0 -48 -22 -109
-82z"/>
<path d="M4872 594 c-63 -57 -74 -83 -49 -114 7 -8 45 -45 84 -83 48 -45 79
-67 95 -67 35 0 148 104 148 135 0 35 -155 185 -190 185 -18 0 -46 -18 -88
-56z"/>
<path d="M3369 413 c-18 -32 -39 -69 -46 -82 -7 -13 -23 -40 -34 -61 -26 -45
-21 -65 17 -74 30 -8 34 -5 66 54 17 30 18 31 48 15 35 -18 38 -38 10 -80 -11
-16 -20 -34 -20 -38 0 -8 70 -41 74 -35 14 18 137 250 135 252 -22 16 -55 36
-61 36 -4 0 -17 -18 -28 -39 -26 -51 -33 -55 -70 -36 -36 18 -36 20 -10 63 26
43 25 56 -5 70 -39 18 -40 17 -76 -45z"/>
<path d="M4613 421 c-97 -52 -101 -62 -51 -150 62 -110 87 -141 115 -141 35 0
161 68 168 91 7 20 -51 139 -67 139 -15 0 -108 -50 -108 -58 0 -4 7 -17 15
-28 10 -15 22 -20 40 -17 35 7 33 -20 -2 -36 -31 -14 -38 -8 -79 71 l-24 47
22 15 c27 19 45 20 51 4 3 -10 13 -9 40 4 43 20 44 26 16 62 -27 34 -68 34
-136 -3z"/>
<path d="M3715 327 c-28 -82 -73 -263 -67 -269 4 -4 22 -10 39 -14 29 -6 33
-4 39 22 3 16 14 54 24 84 28 88 44 159 38 165 -3 3 -20 10 -37 15 -23 6 -33
6 -36 -3z"/>
<path d="M4288 313 c-10 -2 -20 -14 -23 -26 -9 -43 -23 -272 -17 -278 4 -3 21
-2 38 2 24 7 33 16 37 38 5 24 14 32 43 40 41 11 59 4 69 -29 5 -15 11 -16 45
-8 22 6 40 13 40 17 0 4 -33 60 -72 126 -70 115 -74 120 -108 122 -19 0 -43
-1 -52 -4z"/>
<path d="M3943 292 c-17 -2 -37 -10 -44 -18 -16 -20 -24 -233 -10 -254 7 -11
34 -16 94 -18 109 -5 127 4 127 63 l0 45 -40 0 c-33 0 -40 -3 -40 -20 0 -16
-7 -20 -36 -20 l-35 0 2 62 c3 82 6 88 41 88 22 0 31 -6 35 -20 6 -22 43 -36
68 -26 17 6 21 71 6 95 -9 14 -112 28 -168 23z"/>
</g>
</svg>
