<?xml version="1.0" standalone="no"?>
<!DOCTYPE svg PUBLIC "-//W3C//DTD SVG 20010904//EN"
 "http://www.w3.org/TR/2001/REC-SVG-20010904/DTD/svg10.dtd">
<svg version="1.0" xmlns="http://www.w3.org/2000/svg"
 width="996.000000pt" height="430.000000pt" viewBox="0 0 996.000000 430.000000"
 preserveAspectRatio="xMidYMid meet">
<metadata>
Created by potrace 1.16, written by Peter Selinger 2001-2019
</metadata>
<g transform="translate(0.000000,430.000000) scale(0.100000,-0.100000)"
fill="#ffffff" stroke="none">
<path d="M2815 4262 c-234 -128 -425 -274 -621 -474 -210 -213 -362 -424 -484
-673 -108 -218 -163 -379 -207 -605 -24 -121 -27 -158 -27 -355 0 -163 5 -246
17 -320 87 -502 328 -956 717 -1345 184 -185 351 -313 566 -434 102 -58 133
-66 154 -42 9 12 -14 41 -137 163 -213 211 -357 398 -496 643 -253 448 -369
909 -354 1405 6 190 20 312 57 480 120 556 436 1094 878 1497 57 52 61 59 50
78 -18 28 -33 25 -113 -18z"/>
<path d="M3236 4281 c-17 -19 -16 -21 26 -57 84 -73 257 -253 331 -345 349
-437 556 -925 618 -1454 17 -143 14 -456 -6 -600 -48 -359 -151 -668 -332
-993 -137 -245 -272 -423 -488 -639 -136 -136 -159 -164 -149 -177 18 -25 42
-19 132 29 413 222 811 622 1043 1050 192 353 278 679 279 1050 0 247 -32 440
-110 671 -205 605 -693 1173 -1247 1453 -73 37 -75 37 -97 12z"/>
</g>
</svg>
